<mxfile host="Electron" agent="Mozilla/5.0 (Windows NT 10.0; Win64; x64) AppleWebKit/537.36 (KHTML, like Gecko) draw.io/27.0.2 Chrome/134.0.6998.205 Electron/35.3.0 Safari/537.36" version="27.0.2">
  <diagram name="Página-1" id="8lgIsOTnDnWKAatBIi_E">
    <mxGraphModel dx="1426" dy="849" grid="1" gridSize="10" guides="1" tooltips="1" connect="1" arrows="1" fold="1" page="1" pageScale="1" pageWidth="827" pageHeight="1169" math="0" shadow="0">
      <root>
        <mxCell id="0" />
        <mxCell id="1" parent="0" />
        <mxCell id="uV733w_RuW-d72NEYTk3-2" value="" style="swimlane;startSize=0;" vertex="1" parent="1">
          <mxGeometry x="80" y="80" width="680" height="350" as="geometry" />
        </mxCell>
        <mxCell id="uV733w_RuW-d72NEYTk3-3" value="Usuario" style="shape=umlActor;verticalLabelPosition=bottom;verticalAlign=top;html=1;outlineConnect=0;" vertex="1" parent="uV733w_RuW-d72NEYTk3-2">
          <mxGeometry x="70" y="50" width="30" height="60" as="geometry" />
        </mxCell>
        <mxCell id="uV733w_RuW-d72NEYTk3-17" style="edgeStyle=orthogonalEdgeStyle;rounded=0;orthogonalLoop=1;jettySize=auto;html=1;entryX=0.5;entryY=1;entryDx=0;entryDy=0;endArrow=none;startFill=0;" edge="1" parent="uV733w_RuW-d72NEYTk3-2" target="uV733w_RuW-d72NEYTk3-9">
          <mxGeometry relative="1" as="geometry">
            <mxPoint x="600" y="280" as="sourcePoint" />
            <Array as="points">
              <mxPoint x="600" y="310" />
              <mxPoint x="180" y="310" />
            </Array>
          </mxGeometry>
        </mxCell>
        <mxCell id="uV733w_RuW-d72NEYTk3-4" value="Gestor" style="shape=umlActor;verticalLabelPosition=bottom;verticalAlign=top;html=1;outlineConnect=0;" vertex="1" parent="uV733w_RuW-d72NEYTk3-2">
          <mxGeometry x="580" y="190" width="30" height="60" as="geometry" />
        </mxCell>
        <mxCell id="uV733w_RuW-d72NEYTk3-13" style="edgeStyle=orthogonalEdgeStyle;rounded=0;orthogonalLoop=1;jettySize=auto;html=1;endArrow=none;startFill=0;" edge="1" parent="uV733w_RuW-d72NEYTk3-2" source="uV733w_RuW-d72NEYTk3-6" target="uV733w_RuW-d72NEYTk3-3">
          <mxGeometry relative="1" as="geometry" />
        </mxCell>
        <mxCell id="uV733w_RuW-d72NEYTk3-6" value="Solicitar material" style="ellipse;whiteSpace=wrap;html=1;" vertex="1" parent="uV733w_RuW-d72NEYTk3-2">
          <mxGeometry x="400" y="40" width="120" height="80" as="geometry" />
        </mxCell>
        <mxCell id="uV733w_RuW-d72NEYTk3-10" style="edgeStyle=orthogonalEdgeStyle;rounded=0;orthogonalLoop=1;jettySize=auto;html=1;entryX=1;entryY=0.5;entryDx=0;entryDy=0;endArrow=open;endFill=0;dashed=1;" edge="1" parent="uV733w_RuW-d72NEYTk3-2" source="uV733w_RuW-d72NEYTk3-8" target="uV733w_RuW-d72NEYTk3-9">
          <mxGeometry relative="1" as="geometry" />
        </mxCell>
        <mxCell id="uV733w_RuW-d72NEYTk3-11" value="«extiende»" style="edgeLabel;html=1;align=center;verticalAlign=middle;resizable=0;points=[];" vertex="1" connectable="0" parent="uV733w_RuW-d72NEYTk3-10">
          <mxGeometry x="0.1158" y="5" relative="1" as="geometry">
            <mxPoint as="offset" />
          </mxGeometry>
        </mxCell>
        <mxCell id="uV733w_RuW-d72NEYTk3-12" style="edgeStyle=orthogonalEdgeStyle;rounded=0;orthogonalLoop=1;jettySize=auto;html=1;endArrow=none;startFill=0;" edge="1" parent="uV733w_RuW-d72NEYTk3-2" source="uV733w_RuW-d72NEYTk3-8" target="uV733w_RuW-d72NEYTk3-4">
          <mxGeometry relative="1" as="geometry" />
        </mxCell>
        <mxCell id="uV733w_RuW-d72NEYTk3-8" value="Gestionar solicitudes" style="ellipse;whiteSpace=wrap;html=1;" vertex="1" parent="uV733w_RuW-d72NEYTk3-2">
          <mxGeometry x="400" y="180" width="120" height="80" as="geometry" />
        </mxCell>
        <mxCell id="uV733w_RuW-d72NEYTk3-9" value="Actualizar lista de material" style="ellipse;whiteSpace=wrap;html=1;" vertex="1" parent="uV733w_RuW-d72NEYTk3-2">
          <mxGeometry x="120" y="180" width="120" height="80" as="geometry" />
        </mxCell>
      </root>
    </mxGraphModel>
  </diagram>
</mxfile>
